<svg version="1" id="Слой_1" xmlns="http://www.w3.org/2000/svg" width="60" height="60"><style>.st4{fill:#262626}</style><g id="Слой_x0020_1"><path fill="none" d="M-4-4h69v69H-4z"/><g id="_1745139492976"><path d="M40 4S30 25 30 31s4 10 10 10 11-4 11-10S40 4 40 4z" fill="#31b55e"/><path d="M25 41V7c0-4-3-7-6-7s-6 3-6 7v34c-5 4-6 10-2 14 3 5 10 6 14 2 4-3 5-9 2-14l-2-2z" fill="#1b7839"/><path d="M18 9h2v36c2 1 3 2 3 4s-2 4-4 4-4-2-4-4 1-3 3-4V9z" fill="#f6af0d"/><path class="st4" d="M13 36h3v2h-3v-2zM13 31h3v2h-3v-2zM13 26h3v2h-3v-2zM13 21h3v2h-3v-2zM13 16h3v2h-3v-2zM13 11h3v2h-3v-2z"/></g></g></svg>