<svg version="1" id="Слой_1" xmlns="http://www.w3.org/2000/svg" width="60" height="60"><style>.st3{fill:#fabd00}.st4{fill:#f6af0d}</style><g id="Слой_x0020_1"><path fill="none" d="M-2-2h66v66H-2z"/><g id="_1745138119920"><path d="M24 29s18-1 18 20c0-21 19-20 19-20S42 29 42 9c0 20-18 20-18 20z" fill="#31b55e"/><path d="M44 19L42 9c0 19-17 20-18 20l8 2c5-1 10-5 12-12z" fill="#1b7839"/><path class="st3" d="M3 39s12 0 12 14c0-14 13-14 13-14s-13 0-13-14C15 39 3 39 3 39z"/><path class="st4" d="M17 33l-2-8C15 39 3 39 3 39l6 2c3-1 7-3 8-8z"/><path class="st3" d="M13 12s10 0 10 11c0-11 10-11 10-11S23 12 23 1c0 11-10 11-10 11z"/><path class="st4" d="M24 8l-1-7c0 11-10 11-10 11s3 0 5 2c3-1 5-2 6-6z"/><path d="M2 55h56l2 2v1l-2 2H2l-2-2v-1l2-2z" fill="#222129"/></g></g></svg>