<svg version="1" id="Слой_1" xmlns="http://www.w3.org/2000/svg" width="60" height="60"><style>.st2{fill:#262626}</style><g id="Слой_x0020_1"><path fill="none" d="M4-6h53v78H4z"/><g id="_1745138151632"><path fill="#222129" d="M12 49h42v-3l6 6-6 6v-3H6v3l-6-6 6-6v3h6z"/><path class="st2" d="M17 36h2l1 1v6l-1 1h-2l-1-1v-6l1-1zM41 36h2l1 1v6l-1 1h-2l-1-1v-6l1-1z"/><path d="M8 12h44v10c0 10-6 18-12 18H22c-8 0-14-9-14-21v-7z" fill="#1b7839"/><path d="M18 12h34v10c0 10-6 18-12 18H30c-7-2-12-11-12-21v-7z" fill="#31b55e"/><path d="M9 8h42l2 2c0 2-1 3-2 3H9c-1 0-2-1-2-3l2-2z" fill="#f6af0d"/><path d="M43 34l-1-1 1-2c6-4 5-12 5-13v-1c1-1 1 0 1 1 0 0 2 11-5 15l-1 1z" fill="#fff"/></g></g></svg>