<svg version="1" id="Слой_1" xmlns="http://www.w3.org/2000/svg" width="60" height="60"><style>.st3{fill:#fabd00}</style><g id="Слой_x0020_1"><path fill="none" d="M-2-2h63v63H-2z"/><g id="_1745138116784"><path d="M30 60c11-5 20-15 22-26v-1l1-4V10L41 5 30 0 19 5 7 10v19l1 4v1c2 11 11 21 22 26z" fill="#31b55e"/><path d="M30 60c11-5 20-15 22-26v-1l1-4V10L41 5l-11 5-13 5v28l5 12 8 5z" fill="#1b7839"/><path d="M27 24l-2 3-3-3c0-1 1-2 3-2l2 2zM40 27l-1 1-2-1 1-1 2 1zM26 35h-1c0 1 0 0 0 0v-1l1 1z"/><path class="st3" d="M42 31v-3l4-1-1-2h-3l-2-3 3-2-2-2-2 2h-1l-2-2 1-4h-2l-2 3h-3l-1-4h-2v4l-3 1-2-2-2 1 2 3-2 3-3-1-1 2 3 1v4l-4 1v2l4-1v1l1 2 1 1-3 2 1 2 3-2 3 2-1 3 2 1 1-4 1 1h3v3h2v-3l1-1 2-1 3 3 2-2-3-2 1-1 1-2 1-1 3 2 1-2-3-2zm-16 6l-2-2c-1-1 0-2 1-2l2 2-1 2zm-1-9c-2 0-3-1-4-3 0-2 1-4 3-4 2-1 4 1 4 3 1 2-1 4-3 4zm14 1c-2 0-3 0-3-2l2-2c1 0 3 0 3 2l-2 2zM44 11c1 1 0 2-2 3l-2-2 2-3 2 2zM19 45c1 1 0 2-1 2l-2-2 1-2 2 2z"/></g></g></svg>