<svg version="1" id="Слой_1" xmlns="http://www.w3.org/2000/svg" width="60" height="60"><style>.st3{fill:#f6af0d}</style><g id="Слой_x0020_1"><path fill="none" d="M-2-2h63v63H-2z"/><g id="_1745136705184"><path d="M40 1s5 12-17 21C11 26 2 38 13 57c1-9 5-27 22-31 0 0-16 6-17 33 8 1 27 2 32-15C57 23 40 1 40 1z" fill="#1b7839"/><path d="M18 59c17-7 29-23 31-42-4-10-9-16-9-16s5 12-17 21C11 26 2 38 13 57c1-9 5-27 22-31 0 0-16 6-17 33z" fill="#31b55e"/><circle class="st3" cx="11" cy="21" r="2"/><circle class="st3" cx="16" cy="19" r="1"/><circle class="st3" cx="15" cy="8" r="3"/><circle class="st3" cx="24" cy="15" r="1"/><circle class="st3" cx="32" cy="10" r="3"/></g></g></svg>