<svg version="1" id="Слой_1" xmlns="http://www.w3.org/2000/svg" width="60" height="60"><style>.st1{fill:#262626}.st3{fill:#1b7839}.st4{fill:#f6af0d}</style><g id="Слой_x0020_1"><path fill="none" d="M-1-1h63v63H-1z"/><g id="_1745132361232"><path class="st1" d="M24 25l-9-8v-2h2l8 9v1h-1zM36 25h-1v-1l12-12h1v1L37 25h-1z"/><circle cx="52" cy="8" r="7" fill="#31b55e"/><circle class="st3" cx="13" cy="13" r="5"/><path class="st1" d="M10 40H9l1-2 12-5h1v1l-12 6h-1zM52 53L35 37v-2h2l16 17v1h-1zM32 48l-1-1-1-9 1-1 1 1v10z"/><circle class="st4" cx="6" cy="41" r="6"/><circle cx="55" cy="55" r="5" fill="#fabd00"/><circle class="st3" cx="32" cy="50" r="5"/><circle class="st4" cx="31" cy="30" r="10"/></g></g></svg>